<?xml version="1.0" encoding="UTF-8"?>
<svg id="Layer_2" data-name="Layer 2" xmlns="http://www.w3.org/2000/svg" viewBox="0 0 316.87 316.87">
  <g id="Layer_1-2" data-name="Layer 1">
    <path d="M249.69,0H67.22C30.1,0,0,30.1,0,67.22v182.43c0,37.12,30.1,67.22,67.22,67.22h182.47c37.12,0,67.18-30.1,67.18-67.22V67.22C316.87,30.1,286.81,0,249.69,0ZM110.54,55.77c5.57-5.57,14.71-5.57,20.28,0l22.27,22.27c.82.81,1.31,1.99,1.31,3.21l.09,19.01-.05,2.81h1.13l1.63-.09h6.65v-2.81l.04-18.79c-.09-1.09.36-2.13,1.27-3.03l21.95-21.95c5.61-5.61,14.67-5.61,20.28,0l24.49,24.49c-19.69,18.74-45.58,29.02-73.06,28.97-27.43,0-53.42-10.32-73.33-29.06l25.03-25.03ZM55.86,206.91c-5.61-5.61-5.57-14.71,0-20.28l22.27-22.32c.86-.81,1.95-1.31,3.17-1.27l18.92-.09h2.81l-.05-1.04v-1.72l.05-3.89v-2.76h-21.64c-1.04,0-2.13-.45-2.99-1.31l-21.95-21.95c-5.61-5.61-5.61-14.71,0-20.32l24.49-24.49c18.7,19.74,29.02,45.63,29.02,73.11-.05,27.43-10.32,53.41-29.11,73.33l-24.99-24.99ZM206.42,261.1c-5.61,5.61-14.71,5.61-20.28,0l-22.27-22.23c-.86-.91-1.31-2.04-1.31-3.21l-.09-19.01.09-1.67v-1.09h-2.81l-3.89.05-1.68-.05-1.09-.05v21.64c0,1.18-.45,2.22-1.31,3.03l-21.95,22c-5.61,5.57-14.67,5.57-20.28,0l-24.54-24.53c19.74-18.74,45.63-29.02,73.06-29.02,27.43.05,53.46,10.37,73.38,29.11l-25.03,25.03ZM214.97,163.87h20.46c1.13-.05,2.17.41,3.08,1.31l21.95,21.95c5.61,5.61,5.61,14.67,0,20.28l-24.53,24.49c-18.7-19.69-29.02-45.58-29.02-73.06.05-27.43,10.37-53.46,29.11-73.38l25.03,25.08c5.57,5.57,5.61,14.67,0,20.28l-22.27,22.23c-.82.86-1.95,1.31-3.12,1.31h-19.1l-1.63.09h-1.04v9.46l1.09-.05Z"/>
  </g>
</svg>