<?xml version="1.0" encoding="UTF-8"?>
<svg id="Layer_2" data-name="Layer 2" xmlns="http://www.w3.org/2000/svg" viewBox="0 0 1369.5 361.76">
  <defs>
    <style>
      .cls-1 {
        fill: #faeacc;
      }
    </style>
  </defs>
  <g id="Layer_1-2" data-name="Layer 1">
    <g>
      <g>
        <path class="cls-1" d="M244.18,84.77l42.37,42.37c2.71,2.71,2.71,7.1,0,9.81l-37.8,37.8c-1.34,1.34-3.17,2.07-5.06,2.13h-24.49s-2.13.06-2.13.06v2.19s0,5,0,5v2.19s2.13-.06,2.13-.06h24.25c1.83,0,3.53.73,4.93,2.13l37.44,37.44c2.71,2.71,2.71,7.1,0,9.81l-41.7,41.7c-51.73-53.31-51.66-138.79.06-192.58Z"/>
        <path class="cls-1" d="M44.46,84.77c51.66,53.25,51.66,138.79-.12,192.52L2.03,234.98c-2.71-2.71-2.71-7.1,0-9.81l37.86-37.86c1.33-1.33,3.13-2.08,5-2.08l24.43-.06h2.19s0-2.19,0-2.19v-5s0-2.19,0-2.19h-26.44c-1.77.06-3.53-.73-4.87-2.07L2.76,136.28c-2.71-2.71-2.71-7.1,0-9.81l41.7-41.7Z"/>
        <path class="cls-1" d="M148.1,255.67l.06-2.13h-2.19s-5.06.06-5.06.06l-2.13-.06v2.19s-.06,24.19-.06,24.19c.06,1.89-.67,3.59-2.01,4.93l-37.44,37.44c-2.71,2.71-7.1,2.71-9.81,0l-41.7-41.7c53.25-51.66,138.73-51.6,192.52.12l-42.37,42.37c-2.71,2.71-7.1,2.71-9.81,0l-37.8-37.8c-1.36-1.36-2.13-3.2-2.13-5.13l-.06-24.48Z"/>
        <path class="cls-1" d="M199.19,39.17l41.7,41.7c-53.25,51.66-138.73,51.6-192.52-.12l42.37-42.37c2.71-2.71,7.1-2.71,9.81,0l37.8,37.8c1.36,1.36,2.13,3.21,2.13,5.13l.06,24.48v2.19s2.13-.06,2.13-.06l5.06-.06,2.13.06v-2.19s.06-24.19.06-24.19c-.12-1.83.67-3.59,2.01-4.93l37.44-37.44c2.71-2.71,7.1-2.71,9.81,0Z"/>
      </g>
      <g>
        <g>
          <path class="cls-1" d="M719.36,161.44c-.79-21.8-5.23-40.01-13.41-54.63-8.1-14.55-18.86-25.52-32.12-32.91-13.26-7.31-28.32-11.04-45.17-11.04-19.14,0-35.78,4.45-49.9,13.19-14.05,8.82-24.81,21.08-32.33,36.71-7.46,15.63-11.18,33.84-11.18,54.63s3.66,37.78,11.04,53.41c7.31,15.63,18.07,27.96,32.12,36.85,14.05,8.96,30.97,13.41,50.69,13.41,15.77,0,29.9-2.8,42.37-8.46,12.47-5.66,22.8-13.84,30.97-24.66,8.1-10.75,13.26-23.73,15.34-39h-37.07c-1.58,8.17-4.73,15.06-9.46,20.72-4.73,5.59-10.68,9.97-17.92,12.98s-15.2,4.52-23.87,4.52c-18.35,0-32.41-6.52-42.01-19.72-8.39-11.54-13.12-25.88-14.12-42.95h146.04v-13.05ZM574.68,149.25c2.01-12.26,6.45-22.8,13.19-31.55,9.82-12.91,23.73-19.36,41.58-19.36,8.46,0,16.2,1.72,23.3,5.16,7.1,3.37,13.05,8.82,17.92,16.35,4.88,7.46,7.96,17.28,9.25,29.39h-105.25Z"/>
          <path class="cls-1" d="M1015.39,65.17l-56.87,149.01-56.87-149.01h-40.11l78.34,205.89h36.93l78.7-205.89h-40.11Z"/>
          <path class="cls-1" d="M1069.48,0v271.06h37.3V0h-37.3Z"/>
          <path class="cls-1" d="M1314.95,64.34l-97.74,242.9h-.07l-8.03,19.83-.14.28c-4.19,11.23-10.73,19.76-19.55,25.59-.78.57-1.63,1.07-2.49,1.49-8.39,4.9-18.55,7.32-30.35,7.32h-42.96v-37.17h42.18c4.41,0,8.6-1.07,12.51-3.27,3.91-2.2,7.04-5.12,9.38-8.6.28-.43.57-.92.78-1.35l15.94-40.58-69.02-206.45h39.45l50.68,157.98,59.98-157.98h39.45Z"/>
          <g>
            <path class="cls-1" d="M1351.34,95.95c-.63.8-1.4,1.4-2.35,1.79-.92.39-1.91.57-2.98.57-2.38,0-4.23-.8-5.51-2.41-1.31-1.61-1.93-3.72-1.93-6.34s.63-4.79,1.93-6.43c1.28-1.64,3.1-2.44,5.45-2.44,1.07,0,2.05.18,3.01.6.92.39,1.73.98,2.38,1.82.65.83,1.04,1.93,1.22,3.3h5.18c-.18-2.29-.8-4.23-1.88-5.8-1.1-1.58-2.5-2.77-4.2-3.57s-3.6-1.22-5.72-1.22c-2.62,0-4.85.6-6.7,1.76-1.85,1.19-3.24,2.8-4.23,4.85-.95,2.05-1.43,4.41-1.43,7.11s.48,5.03,1.43,7.08c.98,2.02,2.38,3.6,4.23,4.76,1.85,1.16,4.08,1.73,6.7,1.73,2.14,0,4.05-.39,5.77-1.16,1.7-.77,3.1-1.93,4.14-3.45,1.07-1.55,1.7-3.39,1.88-5.63h-5.18c-.18,1.25-.57,2.29-1.22,3.1Z"/>
            <path class="cls-1" d="M1345.66,64.1c-13.13,0-23.81,11.37-23.81,25.36s10.69,25.33,23.81,25.33,23.84-11.37,23.84-25.33-10.69-25.36-23.84-25.36ZM1345.66,108.13c-9.47,0-17.15-8.36-17.15-18.66s7.68-18.69,17.15-18.69,17.18,8.39,17.18,18.69-7.71,18.66-17.18,18.66Z"/>
          </g>
          <polygon class="cls-1" points="775.88 64.34 740 64.34 740 270.86 777.48 270.86 775.88 64.34"/>
          <path class="cls-1" d="M847.54,104.98h-71.4c14.08-24.32,40.39-40.63,70.54-40.63.29,0,.57,0,.86.04v40.59Z"/>
        </g>
        <path class="cls-1" d="M437.61,271.06c-17.01,0-31.72-3.1-44.13-9.31-12.43-6.21-22.34-14.92-29.77-26.12-7.43-11.2-11.94-24.09-13.56-38.67h38.06c2.7,11.34,8.03,20.59,15.99,27.74,7.96,7.16,19.64,10.73,35.03,10.73,11.61,0,21.06-2.43,28.35-7.29,7.29-4.86,10.93-11.34,10.93-19.43,0-5.94-1.48-10.94-4.45-14.98-2.97-4.05-8.17-7.7-15.59-10.93-7.43-3.24-18.15-6.61-32.19-10.12-24.56-5.94-42.05-13.77-52.44-23.49-10.4-9.72-15.59-21.59-15.59-35.63,0-11.87,3.24-22,9.72-30.37,6.47-8.36,15.32-14.78,26.52-19.23,11.2-4.46,23.82-6.69,37.86-6.69,15.93,0,29.77,2.98,41.51,8.91,11.74,5.94,21.06,14.11,27.94,24.5,6.89,10.4,10.6,22.75,11.14,37.06h-38.06c-1.09-11.88-5-20.79-11.74-26.73-6.76-5.94-16.47-8.91-29.15-8.91-10.54,0-19.24,2.23-26.13,6.69-6.88,4.45-10.32,10.73-10.32,18.83,0,7.56,3.65,13.77,10.94,18.62,7.29,4.86,21.05,9.59,41.3,14.17,24.84,5.67,42.32,13.36,52.45,23.08,10.12,9.72,15.18,22.41,15.18,38.07,0,12.14-3.51,22.68-10.53,31.58-7.02,8.91-16.47,15.79-28.35,20.65-11.88,4.86-25.51,7.29-40.9,7.29Z"/>
      </g>
    </g>
  </g>
</svg>